%TF.GenerationSoftware,KiCad,Pcbnew,8.0.0*%
%TF.CreationDate,2024-03-27T15:42:33-03:00*%
%TF.ProjectId,pon_sem_6,706f6e5f-7365-46d5-9f36-2e6b69636164,rev?*%
%TF.SameCoordinates,Original*%
%TF.FileFunction,Copper,L2,Bot*%
%TF.FilePolarity,Positive*%
%FSLAX46Y46*%
G04 Gerber Fmt 4.6, Leading zero omitted, Abs format (unit mm)*
G04 Created by KiCad (PCBNEW 8.0.0) date 2024-03-27 15:42:33*
%MOMM*%
%LPD*%
G01*
G04 APERTURE LIST*
G04 Aperture macros list*
%AMRoundRect*
0 Rectangle with rounded corners*
0 $1 Rounding radius*
0 $2 $3 $4 $5 $6 $7 $8 $9 X,Y pos of 4 corners*
0 Add a 4 corners polygon primitive as box body*
4,1,4,$2,$3,$4,$5,$6,$7,$8,$9,$2,$3,0*
0 Add four circle primitives for the rounded corners*
1,1,$1+$1,$2,$3*
1,1,$1+$1,$4,$5*
1,1,$1+$1,$6,$7*
1,1,$1+$1,$8,$9*
0 Add four rect primitives between the rounded corners*
20,1,$1+$1,$2,$3,$4,$5,0*
20,1,$1+$1,$4,$5,$6,$7,0*
20,1,$1+$1,$6,$7,$8,$9,0*
20,1,$1+$1,$8,$9,$2,$3,0*%
G04 Aperture macros list end*
%TA.AperFunction,ComponentPad*%
%ADD10O,1.700000X1.700000*%
%TD*%
%TA.AperFunction,ComponentPad*%
%ADD11R,1.700000X1.700000*%
%TD*%
%TA.AperFunction,ComponentPad*%
%ADD12O,1.050000X1.500000*%
%TD*%
%TA.AperFunction,ComponentPad*%
%ADD13R,1.050000X1.500000*%
%TD*%
%TA.AperFunction,ComponentPad*%
%ADD14O,0.900000X1.400000*%
%TD*%
%TA.AperFunction,ComponentPad*%
%ADD15RoundRect,0.225000X-0.225000X-0.475000X0.225000X-0.475000X0.225000X0.475000X-0.225000X0.475000X0*%
%TD*%
%TA.AperFunction,ComponentPad*%
%ADD16C,1.800000*%
%TD*%
%TA.AperFunction,ComponentPad*%
%ADD17R,1.800000X1.800000*%
%TD*%
G04 APERTURE END LIST*
D10*
%TO.P,U2,1,GPIO0*%
%TO.N,unconnected-(U2-GPIO0-Pad1)*%
X122845000Y-68385000D03*
%TO.P,U2,2,GPIO1*%
%TO.N,unconnected-(U2-GPIO1-Pad2)*%
X122845000Y-70925000D03*
D11*
%TO.P,U2,3,GND*%
%TO.N,unconnected-(U2-GND-Pad3)*%
X122845000Y-73465000D03*
D10*
%TO.P,U2,4,GPIO2*%
%TO.N,unconnected-(U2-GPIO2-Pad4)*%
X122845000Y-76005000D03*
%TO.P,U2,5,GPIO3*%
%TO.N,unconnected-(U2-GPIO3-Pad5)*%
X122845000Y-78545000D03*
%TO.P,U2,6,GPIO4*%
%TO.N,unconnected-(U2-GPIO4-Pad6)*%
X122845000Y-81085000D03*
%TO.P,U2,7,GPIO5*%
%TO.N,unconnected-(U2-GPIO5-Pad7)*%
X122845000Y-83625000D03*
D11*
%TO.P,U2,8,GND*%
%TO.N,unconnected-(U2-GND-Pad8)*%
X122845000Y-86165000D03*
D10*
%TO.P,U2,9,GPIO6*%
%TO.N,unconnected-(U2-GPIO6-Pad9)*%
X122845000Y-88705000D03*
%TO.P,U2,10,GPIO7*%
%TO.N,unconnected-(U2-GPIO7-Pad10)*%
X122845000Y-91245000D03*
%TO.P,U2,11,GPIO8*%
%TO.N,unconnected-(U2-GPIO8-Pad11)*%
X122845000Y-93785000D03*
%TO.P,U2,12,GPIO9*%
%TO.N,unconnected-(U2-GPIO9-Pad12)*%
X122845000Y-96325000D03*
D11*
%TO.P,U2,13,GND*%
%TO.N,unconnected-(U2-GND-Pad13)*%
X122845000Y-98865000D03*
D10*
%TO.P,U2,14,GPIO10*%
%TO.N,unconnected-(U2-GPIO10-Pad14)*%
X122845000Y-101405000D03*
%TO.P,U2,15,GPIO11*%
%TO.N,unconnected-(U2-GPIO11-Pad15)*%
X122845000Y-103945000D03*
%TO.P,U2,16,GPIO12*%
%TO.N,unconnected-(U2-GPIO12-Pad16)*%
X122845000Y-106485000D03*
%TO.P,U2,17,GPIO13*%
%TO.N,unconnected-(U2-GPIO13-Pad17)*%
X122845000Y-109025000D03*
D11*
%TO.P,U2,18,GND*%
%TO.N,unconnected-(U2-GND-Pad18)*%
X122845000Y-111565000D03*
D10*
%TO.P,U2,19,GPIO14*%
%TO.N,unconnected-(U2-GPIO14-Pad19)*%
X122845000Y-114105000D03*
%TO.P,U2,20,GPIO15*%
%TO.N,unconnected-(U2-GPIO15-Pad20)*%
X122845000Y-116645000D03*
%TO.P,U2,21,GPIO16*%
%TO.N,unconnected-(U2-GPIO16-Pad21)*%
X140625000Y-116645000D03*
%TO.P,U2,22,GPIO17*%
%TO.N,unconnected-(U2-GPIO17-Pad22)*%
X140625000Y-114105000D03*
D11*
%TO.P,U2,23,GND*%
%TO.N,unconnected-(U2-GND-Pad23)*%
X140625000Y-111565000D03*
D10*
%TO.P,U2,24,GPIO18*%
%TO.N,unconnected-(U2-GPIO18-Pad24)*%
X140625000Y-109025000D03*
%TO.P,U2,25,GPIO19*%
%TO.N,unconnected-(U2-GPIO19-Pad25)*%
X140625000Y-106485000D03*
%TO.P,U2,26,GPIO20*%
%TO.N,unconnected-(U2-GPIO20-Pad26)*%
X140625000Y-103945000D03*
%TO.P,U2,27,GPIO21*%
%TO.N,unconnected-(U2-GPIO21-Pad27)*%
X140625000Y-101405000D03*
D11*
%TO.P,U2,28,GND*%
%TO.N,unconnected-(U2-GND-Pad28)*%
X140625000Y-98865000D03*
D10*
%TO.P,U2,29,GPIO22*%
%TO.N,unconnected-(U2-GPIO22-Pad29)*%
X140625000Y-96325000D03*
%TO.P,U2,30,RUN*%
%TO.N,unconnected-(U2-RUN-Pad30)*%
X140625000Y-93785000D03*
%TO.P,U2,31,GPIO26_ADC0*%
%TO.N,unconnected-(U2-GPIO26_ADC0-Pad31)*%
X140625000Y-91245000D03*
%TO.P,U2,32,GPIO27_ADC1*%
%TO.N,unconnected-(U2-GPIO27_ADC1-Pad32)*%
X140625000Y-88705000D03*
D11*
%TO.P,U2,33,AGND*%
%TO.N,unconnected-(U2-AGND-Pad33)*%
X140625000Y-86165000D03*
D10*
%TO.P,U2,34,GPIO28_ADC2*%
%TO.N,unconnected-(U2-GPIO28_ADC2-Pad34)*%
X140625000Y-83625000D03*
%TO.P,U2,35,ADC_VREF*%
%TO.N,unconnected-(U2-ADC_VREF-Pad35)*%
X140625000Y-81085000D03*
%TO.P,U2,36,3V3*%
%TO.N,3V3*%
X140625000Y-78545000D03*
%TO.P,U2,37,3V3_EN*%
%TO.N,unconnected-(U2-3V3_EN-Pad37)*%
X140625000Y-76005000D03*
D11*
%TO.P,U2,38,GND*%
%TO.N,GND*%
X140625000Y-73465000D03*
D10*
%TO.P,U2,39,VSYS*%
%TO.N,VCC*%
X140625000Y-70925000D03*
%TO.P,U2,40,VBUS*%
%TO.N,unconnected-(U2-VBUS-Pad40)*%
X140625000Y-68385000D03*
%TO.P,U2,41,SWCLK*%
%TO.N,unconnected-(U2-SWCLK-Pad41)*%
X129195000Y-116415000D03*
D11*
%TO.P,U2,42,GND*%
%TO.N,unconnected-(U2-GND-Pad42)*%
X131735000Y-116415000D03*
D10*
%TO.P,U2,43,SWDIO*%
%TO.N,unconnected-(U2-SWDIO-Pad43)*%
X134275000Y-116415000D03*
%TD*%
D12*
%TO.P,Q2,3,E*%
%TO.N,3V3*%
X151960000Y-82780000D03*
%TO.P,Q2,2,B*%
%TO.N,Net-(Q2-B)*%
X153230000Y-82780000D03*
D13*
%TO.P,Q2,1,C*%
%TO.N,Net-(Q2-C)*%
X154500000Y-82780000D03*
%TD*%
D14*
%TO.P,J1,2,Pin_2*%
%TO.N,GND*%
X153000000Y-68000000D03*
D15*
%TO.P,J1,1,Pin_1*%
%TO.N,VCC*%
X151750000Y-68000000D03*
%TD*%
D16*
%TO.P,D1,2,A*%
%TO.N,Net-(D1-A)*%
X165290000Y-69050000D03*
D17*
%TO.P,D1,1,K*%
%TO.N,GND*%
X162750000Y-69050000D03*
%TD*%
M02*
