M48
; DRILL file {KiCad 8.0.0} date 2024-03-27T13:59:55-0300
; FORMAT={-:-/ absolute / inch / decimal}
; #@! TF.CreationDate,2024-03-27T13:59:55-03:00
; #@! TF.GenerationSoftware,Kicad,Pcbnew,8.0.0
; #@! TF.FileFunction,Plated,1,2,PTH
FMAT,2
INCH
; #@! TA.AperFunction,Plated,PTH,ComponentDrill
T1C0.0295
; #@! TA.AperFunction,Plated,PTH,ComponentDrill
T2C0.0354
; #@! TA.AperFunction,Plated,PTH,ComponentDrill
T3C0.0402
%
G90
G05
T1
X5.2256Y-2.874
X5.2756Y-2.874
X5.3256Y-2.874
T2
X5.0098Y-2.3445
X5.1098Y-2.3445
T3
X3.7685Y-2.1843
X3.7685Y-2.2843
X3.7685Y-2.3843
X3.7685Y-2.4843
X3.7685Y-2.5843
X3.7685Y-2.6843
X3.7685Y-2.7843
X3.7685Y-2.8843
X3.7685Y-2.9843
X3.7685Y-3.0843
X3.7685Y-3.1843
X3.7685Y-3.2843
X3.7685Y-3.3843
X3.7685Y-3.4843
X3.7685Y-3.5843
X3.7685Y-3.6843
X3.7685Y-3.7843
X3.7685Y-3.8843
X3.7685Y-3.9843
X3.7685Y-4.0843
X4.0185Y-4.0752
X4.1185Y-4.0752
X4.2185Y-4.0752
X4.4685Y-2.1843
X4.4685Y-2.2843
X4.4685Y-2.3843
X4.4685Y-2.4843
X4.4685Y-2.5843
X4.4685Y-2.6843
X4.4685Y-2.7843
X4.4685Y-2.8843
X4.4685Y-2.9843
X4.4685Y-3.0843
X4.4685Y-3.1843
X4.4685Y-3.2843
X4.4685Y-3.3843
X4.4685Y-3.4843
X4.4685Y-3.5843
X4.4685Y-3.6843
X4.4685Y-3.7843
X4.4685Y-3.8843
X4.4685Y-3.9843
X4.4685Y-4.0843
M30
