%TF.GenerationSoftware,KiCad,Pcbnew,8.0.0*%
%TF.CreationDate,2024-03-27T15:42:33-03:00*%
%TF.ProjectId,pon_sem_6,706f6e5f-7365-46d5-9f36-2e6b69636164,rev?*%
%TF.SameCoordinates,Original*%
%TF.FileFunction,Soldermask,Bot*%
%TF.FilePolarity,Negative*%
%FSLAX46Y46*%
G04 Gerber Fmt 4.6, Leading zero omitted, Abs format (unit mm)*
G04 Created by KiCad (PCBNEW 8.0.0) date 2024-03-27 15:42:33*
%MOMM*%
%LPD*%
G01*
G04 APERTURE LIST*
G04 Aperture macros list*
%AMRoundRect*
0 Rectangle with rounded corners*
0 $1 Rounding radius*
0 $2 $3 $4 $5 $6 $7 $8 $9 X,Y pos of 4 corners*
0 Add a 4 corners polygon primitive as box body*
4,1,4,$2,$3,$4,$5,$6,$7,$8,$9,$2,$3,0*
0 Add four circle primitives for the rounded corners*
1,1,$1+$1,$2,$3*
1,1,$1+$1,$4,$5*
1,1,$1+$1,$6,$7*
1,1,$1+$1,$8,$9*
0 Add four rect primitives between the rounded corners*
20,1,$1+$1,$2,$3,$4,$5,0*
20,1,$1+$1,$4,$5,$6,$7,0*
20,1,$1+$1,$6,$7,$8,$9,0*
20,1,$1+$1,$8,$9,$2,$3,0*%
G04 Aperture macros list end*
%ADD10O,1.800000X1.800000*%
%ADD11O,1.500000X1.500000*%
%ADD12O,1.700000X1.700000*%
%ADD13R,1.700000X1.700000*%
%ADD14O,1.050000X1.500000*%
%ADD15R,1.050000X1.500000*%
%ADD16O,0.900000X1.400000*%
%ADD17RoundRect,0.225000X-0.225000X-0.475000X0.225000X-0.475000X0.225000X0.475000X-0.225000X0.475000X0*%
%ADD18C,1.800000*%
%ADD19R,1.800000X1.800000*%
G04 APERTURE END LIST*
D10*
%TO.C,U2*%
X129010000Y-68515000D03*
D11*
X129310000Y-71545000D03*
X134160000Y-71545000D03*
D10*
X134460000Y-68515000D03*
D12*
X122845000Y-68385000D03*
X122845000Y-70925000D03*
D13*
X122845000Y-73465000D03*
D12*
X122845000Y-76005000D03*
X122845000Y-78545000D03*
X122845000Y-81085000D03*
X122845000Y-83625000D03*
D13*
X122845000Y-86165000D03*
D12*
X122845000Y-88705000D03*
X122845000Y-91245000D03*
X122845000Y-93785000D03*
X122845000Y-96325000D03*
D13*
X122845000Y-98865000D03*
D12*
X122845000Y-101405000D03*
X122845000Y-103945000D03*
X122845000Y-106485000D03*
X122845000Y-109025000D03*
D13*
X122845000Y-111565000D03*
D12*
X122845000Y-114105000D03*
X122845000Y-116645000D03*
X140625000Y-116645000D03*
X140625000Y-114105000D03*
D13*
X140625000Y-111565000D03*
D12*
X140625000Y-109025000D03*
X140625000Y-106485000D03*
X140625000Y-103945000D03*
X140625000Y-101405000D03*
D13*
X140625000Y-98865000D03*
D12*
X140625000Y-96325000D03*
X140625000Y-93785000D03*
X140625000Y-91245000D03*
X140625000Y-88705000D03*
D13*
X140625000Y-86165000D03*
D12*
X140625000Y-83625000D03*
X140625000Y-81085000D03*
X140625000Y-78545000D03*
X140625000Y-76005000D03*
D13*
X140625000Y-73465000D03*
D12*
X140625000Y-70925000D03*
X140625000Y-68385000D03*
X129195000Y-116415000D03*
D13*
X131735000Y-116415000D03*
D12*
X134275000Y-116415000D03*
%TD*%
D14*
%TO.C,Q2*%
X151960000Y-82780000D03*
X153230000Y-82780000D03*
D15*
X154500000Y-82780000D03*
%TD*%
D16*
%TO.C,J1*%
X153000000Y-68000000D03*
D17*
X151750000Y-68000000D03*
%TD*%
D18*
%TO.C,D1*%
X165290000Y-69050000D03*
D19*
X162750000Y-69050000D03*
%TD*%
M02*
